<svg width="1442" height="243" viewBox="0 0 1442 243" fill="none" xmlns="http://www.w3.org/2000/svg">
<path d="M672.754 218.163C644.619 124.777 421.188 106.741 241.889 187.118C215.039 196.19 194.631 203.43 170.472 202.394C157.735 201.848 146.07 198.178 135.944 190.315C105.184 166.426 112.021 93.9152 159.302 99.4399M159.302 99.4399C160.655 99.5981 162.042 99.8202 163.461 100.109M159.302 99.4399C160.702 99.5162 162.093 99.745 163.461 100.109M159.302 99.4399C159.013 99.4242 158.724 99.4149 158.435 99.4123M163.461 100.109C163.792 100.177 164.125 100.247 164.459 100.322M163.461 100.109C180.463 104.634 193.939 130.061 178.875 143.533C168.23 153.053 151.856 145.507 152.843 125.857" stroke="black" stroke-width="3"/>
<path d="M768.14 218.163C796.276 124.777 1019.71 106.741 1199.01 187.118C1225.85 196.19 1246.26 203.43 1270.42 202.394C1283.16 201.848 1294.82 198.178 1304.95 190.315C1335.71 166.426 1328.87 93.9152 1281.59 99.4399M1281.59 99.4399C1280.24 99.5981 1278.85 99.8202 1277.43 100.109M1281.59 99.4399C1280.19 99.5162 1278.8 99.745 1277.43 100.109M1281.59 99.4399C1281.88 99.4242 1282.17 99.4149 1282.46 99.4123M1277.43 100.109C1277.1 100.177 1276.77 100.247 1276.44 100.322M1277.43 100.109C1260.43 104.634 1246.96 130.061 1262.02 143.533C1272.66 153.053 1289.04 145.507 1288.05 125.857" stroke="black" stroke-width="3"/>
<path fill-rule="evenodd" clip-rule="evenodd" d="M735.108 114.389C738.938 102.697 741.348 85.74 741.348 66.8722C741.348 52.8873 732.927 15.7745 722.539 3C712.152 15.7745 703.731 52.8873 703.731 66.8722C703.731 86.4492 706.324 103.969 710.408 115.686C670.476 80.9481 638.304 115.129 618.217 124.579C645.599 123.305 681.116 143.01 702.02 168.065C710.621 178.375 717.364 190.07 722.246 202.551C727.218 188.075 734.611 174.512 744.423 162.752C764.497 138.691 798.653 118.956 824.964 119.176C803.606 107.945 772.886 81.1198 735.108 114.389Z" stroke="black" stroke-width="3"/>
<path d="M1345.42 187.122C1355.34 190.692 1369.42 192.055 1384.85 190.321C1396.29 189.035 1429.64 173.175 1439.13 159.404C1411.64 150.01 1379.3 146.404 1367.82 146.23C1349.15 145.949 1360 160.206 1345.42 187.122Z" stroke="black" stroke-width="3"/>
<path d="M96.5754 187.122C86.6626 190.692 72.576 192.055 57.1484 190.321C45.7134 189.035 12.3555 173.175 2.865 159.404C30.3571 150.01 62.695 146.404 74.1778 146.23C92.8527 145.949 81.9953 160.206 96.5754 187.122Z" stroke="black" stroke-width="3"/>
</svg>
